<svg xmlns="http://www.w3.org/2000/svg" viewBox="0 0 512 512">
  <rect width="512" height="512" fill="#0d0d0d"/>
  <rect x="40" y="40" width="432" height="432" rx="60" fill="#161616"/>
  <!-- Barcode bars -->
  <rect x="80" y="160" width="18" height="160" fill="#d4a017"/>
  <rect x="108" y="160" width="10" height="160" fill="#d4a017"/>
  <rect x="128" y="160" width="24" height="160" fill="#d4a017"/>
  <rect x="162" y="160" width="12" height="160" fill="#d4a017"/>
  <rect x="184" y="160" width="20" height="160" fill="#d4a017"/>
  <rect x="214" y="160" width="8"  height="160" fill="#d4a017"/>
  <rect x="232" y="160" width="28" height="160" fill="#d4a017"/>
  <rect x="270" y="160" width="14" height="160" fill="#d4a017"/>
  <rect x="294" y="160" width="20" height="160" fill="#d4a017"/>
  <rect x="324" y="160" width="10" height="160" fill="#d4a017"/>
  <rect x="344" y="160" width="26" height="160" fill="#d4a017"/>
  <rect x="380" y="160" width="16" height="160" fill="#d4a017"/>
  <rect x="406" y="160" width="10" height="160" fill="#d4a017"/>
  <!-- Label -->
  <text x="256" y="380" text-anchor="middle" font-family="sans-serif" font-weight="bold" font-size="52" letter-spacing="6" fill="#d4a017">SCAN</text>
</svg>
